<svg xmlns="http://www.w3.org/2000/svg" viewBox="0 0 96 96" role="img" aria-labelledby="title desc">
  <title id="title">Asistente virtual JustiPenal</title>
  <desc id="desc">Avatar ilustrado de una persona profesional con traje y corbata</desc>
  <defs>
    <linearGradient id="bg" x1="16" y1="10" x2="82" y2="88" gradientUnits="userSpaceOnUse">
      <stop stop-color="#2563EB"/>
      <stop offset="1" stop-color="#0E2148"/>
    </linearGradient>
    <linearGradient id="suit" x1="48" y1="58" x2="48" y2="94" gradientUnits="userSpaceOnUse">
      <stop stop-color="#14306B"/>
      <stop offset="1" stop-color="#0A1633"/>
    </linearGradient>
  </defs>
  <circle cx="48" cy="48" r="46" fill="url(#bg)"/>
  <circle cx="48" cy="46" r="37" fill="#FFFFFF" fill-opacity=".08" stroke="#FFFFFF" stroke-opacity=".22"/>
  <path d="M18 92c2-20 13-31 30-31s28 11 30 31" fill="url(#suit)"/>
  <path d="M36 62l12 16 12-16 7 5-8 25H37l-8-25 7-5z" fill="#F8FAFC"/>
  <path d="M45 75h6l3 17H42l3-17z" fill="#16A34A"/>
  <path d="M42 68l6 10 6-10-6-4-6 4z" fill="#15803D"/>
  <rect x="40" y="52" width="16" height="15" rx="7" fill="#E7B98E"/>
  <ellipse cx="48" cy="38" rx="21" ry="24" fill="#F2C7A0"/>
  <path d="M28 36c0-18 10-27 21-27 13 0 22 9 22 25-5-2-9-7-11-13-8 8-18 11-32 10v5z" fill="#17233B"/>
  <path d="M29 30c2-13 10-21 20-21 7 0 13 3 17 9-10-5-18-2-24 3-4 3-8 6-13 9z" fill="#253553"/>
  <ellipse cx="40" cy="39" rx="2" ry="2.4" fill="#17233B"/>
  <ellipse cx="56" cy="39" rx="2" ry="2.4" fill="#17233B"/>
  <path d="M41 50c4 4 10 4 14 0" fill="none" stroke="#9C5D4B" stroke-width="2" stroke-linecap="round"/>
  <path d="M47 41l-1 5h4" fill="none" stroke="#C68568" stroke-width="1.6" stroke-linecap="round" stroke-linejoin="round"/>
  <path d="M29 91l7-29 12 16-10 14M67 91l-7-29-12 16 10 14" fill="none" stroke="#31508F" stroke-width="2" stroke-linejoin="round"/>
  <circle cx="76" cy="21" r="7" fill="#16A34A" stroke="#FFFFFF" stroke-width="3"/>
</svg>
